<?xml version="1.0" encoding="UTF-8" standalone="no"?>
<svg
   xmlns:osb="http://www.openswatchbook.org/uri/2009/osb"
   xmlns:dc="http://purl.org/dc/elements/1.1/"
   xmlns:cc="http://creativecommons.org/ns#"
   xmlns:rdf="http://www.w3.org/1999/02/22-rdf-syntax-ns#"
   xmlns:svg="http://www.w3.org/2000/svg"
   xmlns="http://www.w3.org/2000/svg"
   id="svg8"
   version="1.1"
   viewBox="0 0 184 68"
   height="68mm"
   width="184mm">
  <defs
     id="defs2">
    <linearGradient
       osb:paint="solid"
       id="linearGradient4551">
      <stop
         id="stop4549"
         offset="0"
         style="stop-color:#000000;stop-opacity:1;" />
    </linearGradient>
  </defs>
  <metadata
     id="metadata5">
    <rdf:RDF>
      <cc:Work
         rdf:about="">
        <dc:format>image/svg+xml</dc:format>
        <dc:type
           rdf:resource="http://purl.org/dc/dcmitype/StillImage" />
        <dc:title></dc:title>
      </cc:Work>
    </rdf:RDF>
  </metadata>
  <g
     id="layer4">
    <rect
       y="-7.3662157"
       x="-11.676456"
       height="101.37286"
       width="226.36403"
       id="rect4945"
       style="fill:#fcffff;fill-opacity:1;stroke:#ffffff;stroke-width:0.69999999;stroke-miterlimit:4;stroke-dasharray:none;stroke-opacity:1" />
  </g>
  <g
     transform="translate(0,-229)"
     style="display:inline"
     id="layer1" />
  <g
     transform="translate(0,-229)"
     style="display:inline"
     id="layer2">
    <g
       id="text3709"
       style="font-style:normal;font-weight:normal;font-size:26.69572449px;line-height:1.25;font-family:sans-serif;letter-spacing:0px;word-spacing:0px;display:inline;fill:#000000;fill-opacity:1;stroke:none;stroke-width:0.66739309"
       transform="scale(0.9043553,1.1057601)"
       aria-label="share" />
  </g>
  <g
     transform="translate(0,-229)"
     id="layer3">
    <path
       id="path965"
       d="m 22.398225,270.1118 -0.07559,0.16847 c -1.003652,2.19302 -1.585083,4.45753 -1.725041,6.74147 v 0.01 2.62146 0.0144 c 0.194306,2.23217 0.810008,4.44273 1.828487,6.58086 l 0.07729,0.16061 h 75.06745 v -1.39956 h -1.117438 v -0.32711 l -0.126751,-0.0918 c -0.578025,-0.41379 -0.787959,-1.22877 -0.848598,-2.38088 -0.06038,-1.14789 0.03728,-2.57279 0,-4.03872 v -0.0144 c 0.01561,-1.16043 -0.07533,-2.51946 -0.0063,-3.69457 0.06951,-1.17984 0.305412,-2.12154 0.859394,-2.53952 l 0.122205,-0.0911 v -0.31466 h 1.11687 v -1.4048 z m 72.9974,1.39759 c 0,0 -0.796415,0.71916 -0.895774,2.42874 v 8.44256 c 0.0018,0.0422 0.0044,0.0704 0.0063,0.11341 0.07516,1.77651 0.902024,2.51986 0.902024,2.51986 l -0.908277,-0.005 H 23.758935 V 271.51597 H 94.15257 Z"
       style="color:#000000;font-style:normal;font-variant:normal;font-weight:normal;font-stretch:normal;font-size:medium;line-height:normal;font-family:sans-serif;font-variant-ligatures:normal;font-variant-position:normal;font-variant-caps:normal;font-variant-numeric:normal;font-variant-alternates:normal;font-feature-settings:normal;text-indent:0;text-align:start;text-decoration:none;text-decoration-line:none;text-decoration-style:solid;text-decoration-color:#000000;letter-spacing:normal;word-spacing:normal;text-transform:none;writing-mode:lr-tb;direction:ltr;text-orientation:mixed;dominant-baseline:auto;baseline-shift:baseline;text-anchor:start;white-space:normal;shape-padding:0;clip-rule:nonzero;display:inline;overflow:visible;visibility:visible;opacity:1;isolation:auto;mix-blend-mode:normal;color-interpolation:sRGB;color-interpolation-filters:linearRGB;solid-color:#000000;solid-opacity:1;vector-effect:none;fill:#000000;fill-opacity:1;fill-rule:nonzero;stroke:none;stroke-width:0.58253366;stroke-linecap:butt;stroke-linejoin:miter;stroke-miterlimit:4;stroke-dasharray:none;stroke-dashoffset:0;stroke-opacity:1;color-rendering:auto;image-rendering:auto;shape-rendering:auto;text-rendering:auto;enable-background:accumulate" />
    <path
       id="rect4688"
       d="m 91.468048,234.4821 -0.628901,0.15193 15.894643,60.59935 0.62683,-0.15192 -1.69602,-6.46776 h 73.82133 V 241.70104 H 93.361472 Z"
       style="font-style:normal;font-weight:normal;font-size:26.69572449px;line-height:1.25;font-family:sans-serif;letter-spacing:0px;word-spacing:0px;display:inline;fill:#000000;fill-opacity:0.96039584;stroke:none;stroke-width:0.41229838;stroke-miterlimit:4;stroke-dasharray:none;stroke-opacity:1" />
    <g
       id="flowRoot3699"
       style="font-style:normal;font-weight:normal;font-size:40px;line-height:1.25;font-family:sans-serif;letter-spacing:0px;word-spacing:0px;display:inline;fill:#000000;fill-opacity:1;stroke:none"
       transform="matrix(0.79467014,0,0,0.91206481,-163.39036,-6.63484)"
       aria-label="guten">
      <path
         id="path4641"
         style="font-style:normal;font-variant:normal;font-weight:normal;font-stretch:normal;font-family:'DejaVu Serif';-inkscape-font-specification:'DejaVu Serif'"
         d="m 230.99609,282.98828 v 18.22266 q 0,4.47265 -2.46093,6.89453 -2.46094,2.4414 -7.01172,2.4414 -2.05078,0 -3.92578,-0.37109 -1.875,-0.37109 -3.59375,-1.11328 v -4.35547 h 1.875 q 0.35156,2.03125 1.66015,2.96875 1.3086,0.9375 3.75,0.9375 3.16406,0 4.62891,-1.79687 1.48437,-1.77735 1.48437,-5.60547 v -2.79297 q -1.05468,1.95312 -2.69531,2.89062 -1.62109,0.91797 -4.02344,0.91797 -3.82812,0 -6.26953,-3.02734 -2.42187,-3.04688 -2.42187,-7.92969 0,-4.88281 2.42187,-7.91016 2.42188,-3.02734 6.26953,-3.02734 2.40235,0 4.02344,0.9375 1.64063,0.91797 2.69531,2.87109 v -3.24218 h 7.03125 v 2.08984 z m -3.59375,7.26563 q 0,-3.73047 -1.44531,-5.70313 -1.42578,-1.97266 -4.16016,-1.97266 -2.77343,0 -4.19921,2.1875 -1.40625,2.1875 -1.40625,6.50391 0,4.29688 1.40625,6.50391 1.42578,2.20703 4.19921,2.20703 2.73438,0 4.16016,-1.95313 1.44531,-1.97265 1.44531,-5.72265 z" />
      <path
         id="path4643"
         style="font-style:normal;font-variant:normal;font-weight:normal;font-stretch:normal;font-family:'DejaVu Serif';-inkscape-font-specification:'DejaVu Serif'"
         d="m 249.78516,280.89844 h 6.71875 v 18.6914 h 3.39843 v 2.07032 h -6.99218 v -3.67188 q -0.9961,2.07031 -2.57813,3.16406 -1.58203,1.07422 -3.67187,1.07422 -3.45704,0 -5.09766,-1.95312 -1.62109,-1.97266 -1.62109,-6.17188 v -11.11328 h -3.24219 v -2.08984 h 6.85547 v 12.08984 q 0,3.78906 0.91797,5.19531 0.9375,1.40625 3.32031,1.40625 2.5,0 3.80859,-1.83593 1.3086,-1.83594 1.3086,-5.33204 v -9.43359 h -3.125 z" />
      <path
         id="path4645"
         style="font-style:normal;font-variant:normal;font-weight:normal;font-stretch:normal;font-family:'DejaVu Serif';-inkscape-font-specification:'DejaVu Serif'"
         d="m 265.72266,282.98828 h -3.16407 v -2.08984 h 3.16407 v -6.44532 h 3.61328 v 6.44532 h 6.75781 v 2.08984 h -6.75781 v 13.18359 q 0,2.63672 0.50781,3.37891 0.50781,0.74219 1.875,0.74219 1.40625,0 2.05078,-0.82031 0.64453,-0.83985 0.68359,-2.69532 h 2.71485 q -0.15625,2.83203 -1.54297,4.14063 -1.38672,1.30859 -4.21875,1.30859 -3.10547,0 -4.39453,-1.36719 -1.28906,-1.38671 -1.28906,-4.6875 z" />
      <path
         id="path4647"
         style="font-style:normal;font-variant:normal;font-weight:normal;font-stretch:normal;font-family:'DejaVu Serif';-inkscape-font-specification:'DejaVu Serif';fill:#000000;fill-opacity:1"
         d="m 299.17969,291.66016 h -15.48828 v 0.15625 q 0,4.19921 1.58203,6.34765 1.58203,2.12891 4.66797,2.12891 2.36328,0 3.86718,-1.23047 1.52344,-1.25 2.12891,-3.69141 h 2.89062 q -0.85937,3.41797 -3.18359,5.13672 -2.30469,1.71875 -6.07422,1.71875 -4.55078,0 -7.32422,-2.98828 -2.7539,-3.00781 -2.7539,-7.96875 0,-4.92187 2.71484,-7.92969 2.71484,-3.00781 7.12891,-3.00781 4.70703,0 7.22656,2.91016 2.51953,2.89062 2.61719,8.41797 z m -4.23828,-2.07032 q -0.11719,-3.63281 -1.54297,-5.46875 -1.40625,-1.85547 -4.0625,-1.85547 -2.48047,0 -3.90625,1.85547 -1.42578,1.85547 -1.73828,5.46875 z" />
      <path
         id="path4649"
         style="font-style:normal;font-variant:normal;font-weight:normal;font-stretch:normal;font-family:'DejaVu Serif';-inkscape-font-specification:'DejaVu Serif'"
         d="m 302.8125,301.66016 v -2.07032 h 3.24219 v -16.60156 h -3.4375 v -2.08984 h 7.03125 v 3.6914 q 0.99609,-2.10937 2.57812,-3.18359 1.60156,-1.07422 3.71094,-1.07422 3.4375,0 5.05859,1.97266 1.6211,1.97265 1.6211,6.15234 v 11.13281 h 3.20312 v 2.07032 h -9.92187 v -2.07032 h 3.10547 v -10 q 0,-3.80859 -0.9375,-5.21484 -0.9375,-1.42578 -3.30079,-1.42578 -2.5,0 -3.80859,1.83594 -1.30859,1.8164 -1.30859,5.3125 v 9.49218 h 3.125 v 2.07032 z" />
    </g>
    <path
       style="font-style:normal;font-weight:normal;font-size:26.69572449px;line-height:1.25;font-family:sans-serif;letter-spacing:0px;word-spacing:0px;display:inline;fill:none;fill-opacity:1;stroke:#ffffff;stroke-width:0.69999999;stroke-miterlimit:4;stroke-dasharray:none;stroke-opacity:1"
       d="m 145.53045,267.66204 a 5.2886139,4.9902205 0 0 1 -5.28861,4.99022 5.2886139,4.9902205 0 0 1 -5.28862,-4.99022 5.2886139,4.9902205 0 0 1 5.28862,-4.99022 5.2886139,4.9902205 0 0 1 5.28861,4.99022 z"
       id="path4621" />
    <path
       id="path4547"
       d="m 121.43385,281.54163 a 4.4088206,4.4088206 0 0 1 -4.40882,4.40882 4.4088206,4.4088206 0 0 1 -4.40882,-4.40882 4.4088206,4.4088206 0 0 1 4.40882,-4.40882 4.4088206,4.4088206 0 0 1 4.40882,4.40882 z"
       style="fill:none;fill-opacity:1;stroke:#ffffff;stroke-width:0.69999999;stroke-miterlimit:4;stroke-dasharray:none;stroke-opacity:1" />
    <path
       id="path4583"
       d="m 149.10536,279.16039 a 1.6536458,1.6536458 0 0 1 -1.65365,1.65364 1.6536458,1.6536458 0 0 1 -1.65365,-1.65364 1.6536458,1.6536458 0 0 1 1.65365,-1.65365 1.6536458,1.6536458 0 0 1 1.65365,1.65365 z"
       style="fill:none;fill-opacity:1;stroke:#ffffff;stroke-width:0.69999999;stroke-miterlimit:4;stroke-dasharray:none;stroke-opacity:1" />
    <path
       id="path4583-0"
       d="m 173.72935,283.46619 a 3.5165541,3.5165541 0 0 1 -3.51656,3.51654 3.5165541,3.5165541 0 0 1 -3.51655,-3.51654 3.5165541,3.5165541 0 0 1 3.51655,-3.51657 3.5165541,3.5165541 0 0 1 3.51656,3.51657 z"
       style="display:inline;fill:none;fill-opacity:1;stroke:#ffffff;stroke-width:0.60998815;stroke-miterlimit:4;stroke-dasharray:none;stroke-opacity:1" />
    <path
       id="path4600"
       d="m 121.22819,280.66428 24.43427,-1.31006"
       style="fill:none;fill-opacity:1;stroke:#ffffff;stroke-width:0.69999999;stroke-linecap:butt;stroke-linejoin:miter;stroke-miterlimit:4;stroke-dasharray:none;stroke-opacity:1" />
    <path
       id="path4602"
       d="m 146.49934,277.84889 -3.62616,-5.85771"
       style="fill:none;fill-opacity:1;stroke:#ffffff;stroke-width:0.69999999;stroke-linecap:butt;stroke-linejoin:miter;stroke-miterlimit:4;stroke-dasharray:none;stroke-opacity:1" />
    <path
       id="path4604"
       d="m 121.23596,282.79836 45.56336,0.66154"
       style="fill:none;fill-opacity:1;stroke:#ffffff;stroke-width:0.69999999;stroke-linecap:butt;stroke-linejoin:miter;stroke-miterlimit:4;stroke-dasharray:none;stroke-opacity:1" />
    <g
       transform="translate(-1.0456827,185.99979)"
       style="fill:#fcffff;fill-opacity:1;stroke:none;stroke-opacity:1"
       id="g4735">
      <path
         transform="scale(0.90435531,1.1057601)"
         d="m 125.01998,73.874854 q 0,-1.303502 -0.99066,-2.016083 -0.97328,-0.729961 -3.42387,-1.251362 -2.4332,-0.521401 -3.87574,-1.251362 -1.42516,-0.729961 -2.12037,-1.738003 -0.67782,-1.008042 -0.67782,-2.398444 0,-2.311544 1.94657,-3.910507 1.96394,-1.598962 5.00545,-1.598962 3.19792,0 5.17924,1.651103 1.99871,1.651102 1.99871,4.223347 h -3.23269 q 0,-1.320883 -1.1297,-2.276784 -1.11232,-0.955902 -2.81556,-0.955902 -1.75539,0 -2.74605,0.764721 -0.99066,0.764722 -0.99066,1.998704 0,1.164462 0.92114,1.755383 0.92114,0.590921 3.31959,1.129702 2.41582,0.53878 3.9105,1.286122 1.49468,0.747341 2.20727,1.807523 0.72996,1.042801 0.72996,2.554864 0,2.520104 -2.01609,4.049547 -2.01608,1.512062 -5.23138,1.512062 -2.25941,0 -3.99741,-0.799481 -1.738,-0.799481 -2.72867,-2.224644 -0.97328,-1.442542 -0.97328,-3.111025 h 3.21531 q 0.0869,1.616343 1.28612,2.572244 1.2166,0.938522 3.19793,0.938522 1.8249,0 2.91984,-0.729961 1.11232,-0.747342 1.11232,-1.981324 z"
         style="font-style:normal;font-variant:normal;font-weight:normal;font-stretch:normal;font-size:35.59429932px;line-height:1.25;font-family:Roboto;-inkscape-font-specification:Roboto;letter-spacing:0px;word-spacing:0px;display:inline;fill:#fcffff;fill-opacity:1;stroke:none;stroke-width:0.66739309;stroke-opacity:1"
         id="path4608" />
      <path
         transform="scale(0.90435531,1.1057601)"
         d="m 134.46892,62.334515 q 2.13774,-2.624384 5.56161,-2.624384 5.96135,0 6.01349,6.726071 v 12.426721 h -3.21531 V 66.418822 q -0.0174,-2.033463 -0.93852,-3.006745 -0.90376,-0.973282 -2.83294,-0.973282 -1.56421,0 -2.74605,0.834242 -1.18184,0.834241 -1.84228,2.189883 v 13.400003 h -3.21531 V 52.167198 h 3.21531 z"
         style="font-style:normal;font-variant:normal;font-weight:normal;font-stretch:normal;font-size:35.59429932px;line-height:1.25;font-family:Roboto;-inkscape-font-specification:Roboto;letter-spacing:0px;word-spacing:0px;display:inline;fill:#fcffff;fill-opacity:1;stroke:none;stroke-width:0.66739309;stroke-opacity:1"
         id="path4610" />
      <path
         transform="scale(0.90435531,1.1057601)"
         d="m 161.88302,78.862923 c -0.18539,-0.370774 -0.33601,-1.031215 -0.45188,-1.981324 -0.0484,-10.835201 0.0281,-2.534635 -0.0521,-9.419975 v -1.477303 c 0,-1.123909 -0.33601,-2.016083 -1.00804,-2.676524 -0.67203,-0.672028 -1.6627,-1.008042 -2.97199,-1.008042 -1.14708,0 -2.10877,0.289667 -2.88508,0.869002 -0.77631,0.579334 -1.16447,1.280328 -1.16447,2.102983 h -3.23268 c 0,-0.938521 0.33022,-1.842283 0.99066,-2.711284 0.67203,-0.880589 1.57579,-1.57579 2.71128,-2.085604 1.14709,-0.509814 2.40424,-0.764721 3.77147,-0.764721 2.16671,0 3.86416,0.544574 5.09235,1.633722 1.22819,1.077562 1.86545,2.566451 1.9118,4.466668 v 8.655254 c 0,1.726417 0.22015,3.099439 0.66044,4.119067 v 0.278081 z"
         style="font-style:normal;font-variant:normal;font-weight:normal;font-stretch:normal;font-size:35.59429932px;line-height:1.25;font-family:Roboto;-inkscape-font-specification:Roboto;letter-spacing:0px;word-spacing:0px;display:inline;fill:#fcffff;fill-opacity:1;stroke:none;stroke-width:0.66739309;stroke-opacity:1"
         id="path4612" />
      <path
         transform="scale(0.90435531,1.1057601)"
         d="m 178.17389,62.942816 q -0.72996,-0.12166 -1.58158,-0.12166 -3.16316,0 -4.29287,2.693904 v 13.347863 h -3.2153 V 60.057731 h 3.1284 l 0.0521,2.172504 q 1.58159,-2.520104 4.48405,-2.520104 0.93852,0 1.42516,0.24332 z"
         style="font-style:normal;font-variant:normal;font-weight:normal;font-stretch:normal;font-size:35.59429932px;line-height:1.25;font-family:Roboto;-inkscape-font-specification:Roboto;letter-spacing:0px;word-spacing:0px;display:inline;fill:#fcffff;fill-opacity:1;stroke:none;stroke-width:0.66739309;stroke-opacity:1"
         id="path4614" />
      <g
         aria-label="e"
         style="font-style:normal;font-weight:normal;font-size:10.58333302px;line-height:1.25;font-family:sans-serif;letter-spacing:0px;word-spacing:0px;display:inline;fill:#fcffff;fill-opacity:1;stroke:none;stroke-width:0.26458332;stroke-opacity:1"
         id="text994"
         transform="matrix(2.2856944,0,0,2.7499524,78.289738,15.06725)">
        <path
           d="m 40.274337,26.231808 q -1.515842,0 -2.466688,-0.992187 -0.950846,-0.999078 -0.950846,-2.666504 V 22.33885 q 0,-1.10932 0.420301,-1.977484 0.427192,-0.875055 1.185113,-1.364258 0.764811,-0.496094 1.653646,-0.496094 1.45383,0 2.259982,0.957737 0.806153,0.957736 0.806153,2.742295 v 0.530545 h -5.05051 q 0.02756,1.102431 0.640788,1.78456 0.620117,0.675238 1.570963,0.675238 0.675239,0 1.143772,-0.275607 0.468533,-0.275608 0.819932,-0.730361 l 0.778592,0.606337 q -0.937066,1.44005 -2.811198,1.44005 z m -0.158474,-6.683485 q -0.771702,0 -1.295356,0.564996 -0.523655,0.558105 -0.647678,1.570963 h 3.734483 v -0.09646 q -0.05512,-0.971516 -0.523654,-1.502061 -0.468533,-0.537435 -1.267795,-0.537435 z"
           style="font-style:normal;font-variant:normal;font-weight:normal;font-stretch:normal;font-size:14.11111069px;font-family:Roboto;-inkscape-font-specification:Roboto;fill:#fcffff;fill-opacity:1;stroke:none;stroke-width:0.26458332;stroke-opacity:1"
           id="path996" />
      </g>
    </g>
  </g>
</svg>
